<?xml version="1.0" encoding="iso-8859-1"?>
<!-- Generator: Adobe Illustrator 19.0.0, SVG Export Plug-In . SVG Version: 6.00 Build 0)  -->
<svg version="1.1" id="Layer_1" xmlns="http://www.w3.org/2000/svg" xmlns:xlink="http://www.w3.org/1999/xlink" x="0px" y="0px"
	 viewBox="0 0 512 512" style="enable-background:new 0 0 512 512;" xml:space="preserve">
<circle style="fill:#D35933;" cx="256" cy="256" r="256"/>
<path style="fill:#B54324;" d="M304.24,507.44c101.298-19.32,181.422-98.316,202.38-199.023L405.933,207.731l-140.4,87.107
	l-31.082-31.08l-128.384,40.512l27.8,27.798l-5.055-0.055L304.24,507.44z"/>
<path style="fill:#D0D1D3;" d="M151.849,334.007h-19.253c-2.539,0-4.596-2.058-4.596-4.598v-19.251c0-2.539,2.058-4.598,4.596-4.598
	h19.251c2.539,0,4.596,2.058,4.596,4.598v19.251C156.444,331.948,154.386,334.007,151.849,334.007z"/>
<path style="fill:#A6A8AA;" d="M379.402,334.007h-19.251c-2.539,0-4.598-2.058-4.598-4.598v-19.251c0-2.539,2.058-4.598,4.598-4.598
	h19.251c2.539,0,4.598,2.058,4.598,4.598v19.251C384,331.948,381.942,334.007,379.402,334.007z"/>
<path style="fill:#FFFFFF;" d="M386.729,312.889h-261.46c-14.202,0-25.714-11.512-25.714-25.715v-62.348
	c0-14.202,11.512-25.715,25.714-25.715h261.46c14.202,0,25.715,11.512,25.715,25.715v62.348
	C412.444,301.377,400.932,312.889,386.729,312.889z"/>
<path style="fill:#D0D1D3;" d="M386.729,199.111H257.148v113.778h129.581c14.202,0,25.716-11.512,25.716-25.715v-62.348
	C412.444,210.623,400.932,199.111,386.729,199.111z"/>
<circle style="fill:#808183;" cx="335.3" cy="256" r="48.269"/>
<path style="fill:#59595B;" d="M335.3,207.731c26.658,0,48.269,21.611,48.269,48.269s-21.611,48.269-48.269,48.269V207.731z"/>
<circle style="fill:#3F3B3B;" cx="335.3" cy="256" r="35.34"/>
<path style="fill:#272525;" d="M335.3,220.66c19.518,0,35.34,15.822,35.34,35.34s-15.822,35.34-35.34,35.34V220.66z"/>
<g>
	<path style="fill:#D0D1D3;" d="M249.104,246.088H135.327c-2.381,0-4.31-1.929-4.31-4.31l0,0c0-2.381,1.929-4.31,4.31-4.31h113.778
		c2.381,0,4.31,1.929,4.31,4.31l0,0C253.414,244.158,251.485,246.088,249.104,246.088z"/>
	<path style="fill:#D0D1D3;" d="M249.104,284.444H135.327c-2.381,0-4.31-1.929-4.31-4.31l0,0c0-2.381,1.929-4.31,4.31-4.31h113.778
		c2.381,0,4.31,1.929,4.31,4.31l0,0C253.414,282.515,251.485,284.444,249.104,284.444z"/>
	<path style="fill:#D0D1D3;" d="M249.104,264.62H135.327c-2.381,0-4.31-1.929-4.31-4.31l0,0c0-2.381,1.929-4.31,4.31-4.31h113.778
		c2.381,0,4.31,1.929,4.31,4.31l0,0C253.414,262.69,251.485,264.62,249.104,264.62z"/>
</g>
<g>
</g>
<g>
</g>
<g>
</g>
<g>
</g>
<g>
</g>
<g>
</g>
<g>
</g>
<g>
</g>
<g>
</g>
<g>
</g>
<g>
</g>
<g>
</g>
<g>
</g>
<g>
</g>
<g>
</g>
</svg>
